<svg xmlns="http://www.w3.org/2000/svg" viewBox="0 0 32 32" id="Heart"><path fill-rule="evenodd" d="M10.896 6.443c-1.509 0-3.018.577-4.17 1.73a5.888 5.888 0 0 0-1.712 4.51c-1.015.303-1.797.64-2.325 1.057-.298.237-.531.51-.636.85-.106.34-.04.727.15 1.031.38.608 1.108.994 2.115 1.36 1.007.364 2.313.673 3.873.915l7.444 6.97a.5.5 0 0 0 .342.134h.015a.5.5 0 0 0 .342-.135l7.445-6.97c1.384-.216 2.63-.485 3.627-.819.835-.28 1.467-.58 1.916-.941.45-.361.75-.863.66-1.39-.09-.528-.485-.915-1.021-1.245-.492-.303-1.16-.57-1.975-.814a5.998 5.998 0 0 0-1.744-4.512.5.5 0 0 0-.16-.108.5.5 0 0 0-.006 0c-2.313-2.162-5.92-2.15-8.176.11l-.916.92-.918-.92a5.873 5.873 0 0 0-4.17-1.73v-.003zm0 .989c1.25 0 2.501.483 3.463 1.447l1.272 1.273a.5.5 0 0 0 .707 0l1.271-1.273a4.875 4.875 0 0 1 3.461-1.447v.002c1.25 0 2.501.483 3.463 1.447a.5.5 0 0 0 .002 0 .5.5 0 0 0 .002 0c1.921 1.928 1.983 5.075.01 6.922L23.33 16.94c-3.107.452-7.032.626-10.803.4a.5.5 0 1 0-.058.999c3.297.197 6.679.108 9.6-.217l-6.085 5.695-8.55-8.004h-.002a4.89 4.89 0 0 1 .002-6.935 4.879 4.879 0 0 1 3.462-1.447zm-5.738 6.254a5.877 5.877 0 0 0 1.569 2.84.5.5 0 0 0 .011.011l.086.08c-.831-.176-1.587-.366-2.166-.576-.915-.332-1.47-.73-1.607-.95-.069-.109-.065-.136-.043-.206.021-.07.104-.202.303-.36.332-.263.973-.564 1.847-.84zm21.692.01c.679.214 1.235.44 1.586.656.412.253.545.475.56.562.015.087-.003.202-.299.44-.296.237-.838.515-1.607.773-.556.186-1.232.347-1.955.498l.095-.088a5.537 5.537 0 0 0 1.62-2.842z" color="#000" font-family="sans-serif" font-weight="400" overflow="visible" style="line-height:normal;text-indent:0;text-align:start;text-decoration-line:none;text-decoration-style:solid;text-decoration-color:#000;text-transform:none;block-progression:tb;white-space:normal;isolation:auto;mix-blend-mode:normal;solid-color:#000;solid-opacity:1" fill="#ffffff" class="color000000 svgShape"></path></svg>